<svg width="24" height="24" viewBox="0 0 24 24" fill="none" xmlns="http://www.w3.org/2000/svg">
<path d="M21.1875 11.1094L22.6875 10.2656C23.1094 10.0312 23.3438 9.51562 23.2031 9C22.6875 7.03125 21.6094 5.25 20.2031 3.79688C19.8281 3.46875 19.2656 3.375 18.8438 3.60938L17.3438 4.5C16.9688 4.21875 16.2656 3.79688 15.7969 3.60938V1.875C15.7969 1.40625 15.4219 0.890625 14.9531 0.796875C13.0312 0.28125 10.9219 0.28125 9 0.796875C8.48438 0.9375 8.15625 1.35938 8.15625 1.875V3.60938C7.6875 3.79688 6.98438 4.21875 6.60938 4.5L5.10938 3.60938C4.6875 3.375 4.125 3.46875 3.75 3.79688C2.34375 5.25 1.26562 7.03125 0.75 9C0.609375 9.51562 0.84375 10.0312 1.26562 10.2656L2.76562 11.1094C2.71875 11.3906 2.71875 11.7656 2.71875 12C2.71875 12.2812 2.71875 12.6562 2.76562 12.8906L1.26562 13.7812C0.84375 14.0156 0.609375 14.5312 0.75 15.0469C1.26562 17.0156 2.34375 18.7969 3.75 20.25C4.125 20.5781 4.6875 20.6719 5.10938 20.4375L6.60938 19.5469C6.98438 19.8281 7.6875 20.25 8.15625 20.4375V22.1719C8.15625 22.6406 8.53125 23.1562 9 23.25C10.9219 23.7656 13.0312 23.7656 14.9531 23.25C15.4688 23.1094 15.7969 22.6875 15.7969 22.1719V20.4375C16.2656 20.25 16.9688 19.8281 17.3438 19.5469L18.8438 20.4375C19.2656 20.6719 19.8281 20.5781 20.2031 20.25C21.6094 18.7969 22.6875 17.0156 23.2031 15.0469C23.3438 14.5312 23.1094 14.0156 22.6875 13.7812L21.1875 12.8906C21.2344 12.3281 21.2344 11.7188 21.1875 11.1094ZM18.7031 14.1094L20.7656 15.2812C20.4844 16.125 19.7344 17.3438 19.1719 18L17.1094 16.8281C15.6094 18.0938 15.4219 18.2344 13.5469 18.8906V21.2812C13.125 21.3281 12.4219 21.4219 12 21.4219C11.5312 21.4219 10.8281 21.3281 10.4062 21.2812V18.8906C8.53125 18.2344 8.29688 18.0938 6.84375 16.8281L4.78125 18C4.21875 17.3438 3.46875 16.125 3.1875 15.2812L5.25 14.1094C4.875 12.1406 4.875 11.9062 5.25 9.9375L3.1875 8.76562C3.5625 7.78125 4.07812 6.84375 4.78125 6.04688L6.84375 7.21875C8.34375 5.95312 8.53125 5.8125 10.4062 5.15625V2.76562C10.8281 2.71875 11.5312 2.625 12 2.625C12.4219 2.625 13.125 2.71875 13.5469 2.76562V5.15625C15.4219 5.8125 15.6562 5.95312 17.1094 7.21875L19.1719 6.04688C19.7344 6.70312 20.4844 7.92188 20.7656 8.76562L18.7031 9.9375C19.0781 11.9062 19.0781 12.1406 18.7031 14.1094ZM12 7.5C9.51562 7.5 7.5 9.5625 7.5 12C7.5 14.4844 9.51562 16.5 12 16.5C14.4375 16.5 16.5 14.4844 16.5 12C16.5 9.5625 14.4375 7.5 12 7.5ZM12 14.25C10.7344 14.25 9.75 13.2656 9.75 12C9.75 10.7812 10.7344 9.75 12 9.75C13.2188 9.75 14.25 10.7812 14.25 12C14.25 13.2656 13.2188 14.25 12 14.25Z" fill="#212B0E"/>
</svg>
