<svg width="27" height="27" viewBox="0 0 27 27" fill="none" xmlns="http://www.w3.org/2000/svg">
<path d="M0.375 11.875H11.625V0.625H0.375V11.875ZM2.71875 2.96875H9.28125V9.53125H2.71875V2.96875ZM15.375 0.625V11.875H26.625V0.625H15.375ZM24.2812 9.53125H17.7188V2.96875H24.2812V9.53125ZM0.375 26.875H11.625V15.625H0.375V26.875ZM2.71875 17.9688H9.28125V24.5312H2.71875V17.9688ZM4.59375 19.8438V22.6562H7.40625V19.8438H4.59375ZM4.59375 4.84375V7.65625H7.40625V4.84375H4.59375ZM22.4062 7.65625V4.84375H19.5938V7.65625H22.4062ZM24.75 15.625V17.5H21V15.625H15.375V26.875H17.25V21.25H19.125V23.125H26.625V15.625H24.75ZM24.75 25V26.875H26.625V25H24.75ZM21 25V26.875H22.875V25H21Z" fill="#212B0E"/>
</svg>
